<svg xmlns="http://www.w3.org/2000/svg" viewBox="0 0 385.86 147.33"><defs><style>.cls-1{font-size:60px;}.cls-1,.cls-3,.cls-4{font-family:GillSansMT-Bold, Gill Sans MT;font-weight:700;}.cls-2{fill:#827ab8;}.cls-3,.cls-4{font-size:126.11px;}.cls-3{stroke:#000;stroke-miterlimit:10;}</style></defs><g id="Capa_2" data-name="Capa 2"><g id="Capa_1-2" data-name="Capa 1"><text class="cls-1" transform="translate(197.51 61.52) scale(0.83 1)">P</text><text class="cls-1" transform="translate(233.68 61.52) scale(0.83 1)">R</text><text class="cls-1" transform="translate(305.09 106.55) scale(0.83 1)">O</text><text class="cls-1" transform="translate(318.04 61.52) scale(0.83 1)">F</text><text class="cls-1" transform="translate(351.61 61.52) scale(0.83 1)">E</text><text class="cls-1" transform="translate(197.51 106.55) scale(0.84 1)">M</text><text class="cls-1" transform="translate(240.49 106.55) scale(0.69 1)">A</text><text class="cls-1" transform="translate(271.25 106.55) scale(0.75 1)">C</text><text class="cls-1" transform="translate(271.25 61.52) scale(0.84 1)">O</text><text class="cls-1" transform="translate(347.11 106.55) scale(0.77 1)">N</text><path class="cls-2" d="M.07,63.4A49.72,49.72,0,0,0,1.78,74.23,41.34,41.34,0,0,0,6.94,85.8,36,36,0,0,0,18.77,97.16a42.84,42.84,0,0,0,18.88,5.65,47.57,47.57,0,0,0,11-.36A40.13,40.13,0,0,0,59.56,99c7.14-3.41,13.65-9,19.57-15.52S90.47,69.36,96.45,61.65c5.9-7.53,11.65-15.13,18.12-21.83S128.22,27.3,136.3,23.74a44.59,44.59,0,0,1,12.34-3.49,50.48,50.48,0,0,1,12,0,44.59,44.59,0,0,1,20,7,36.05,36.05,0,0,1,11.66,12.9,41,41,0,0,1,4.19,12.28,48.15,48.15,0,0,1,.64,10.93,51.17,51.17,0,0,0-1.65-10.7,40.67,40.67,0,0,0-5-11.45A34.21,34.21,0,0,0,178.9,30.09a41.78,41.78,0,0,0-18.67-5.32,46.4,46.4,0,0,0-10.83.5,40.71,40.71,0,0,0-10.76,3.52c-7,3.42-13.5,8.91-19.48,15.37S107.61,58.1,101.64,65.73c-5.81,7.48-11.43,15.26-17.87,22s-13.69,12.74-21.9,16.3a44.53,44.53,0,0,1-12.56,3.4,50.85,50.85,0,0,1-12.12-.19A45.42,45.42,0,0,1,17,99.94,37.73,37.73,0,0,1,5.15,86.87,41.25,41.25,0,0,1,.78,74.46,46.1,46.1,0,0,1,.07,63.4Z"/><path class="cls-2" d="M21.15,108.93a51.16,51.16,0,0,0,8.16,2.32,62.08,62.08,0,0,0,9.63,1.12c1.89.06,3.76.07,6-.05a51.72,51.72,0,0,0,6.9-.88,51.07,51.07,0,0,0,14.7-5.52A68.94,68.94,0,0,0,80.3,95.59c8.63-8.11,15.89-18.47,23.42-28.23,7.84-10.09,15-19.36,22.71-26a55.25,55.25,0,0,1,11.43-8,36.56,36.56,0,0,1,10.82-3.6,36.94,36.94,0,0,1,9.4-.21,42.94,42.94,0,0,1,7.12,1.22,33,33,0,0,1,5.56,2,36.9,36.9,0,0,0-5.68-1.43,44.6,44.6,0,0,0-7.07-.65,36.27,36.27,0,0,0-9,.84c-6.34,1.38-13.47,5.27-20.57,12s-14,15.87-21.93,26c-7.42,9.62-15,20.11-24.18,28.24a70.1,70.1,0,0,1-14.66,10.27,51.63,51.63,0,0,1-15.53,5.12,51,51,0,0,1-7.17.58c-2.31,0-4.19-.11-6.12-.28a59.87,59.87,0,0,1-9.67-1.7A48.66,48.66,0,0,1,21.15,108.93Z"/><path class="cls-2" d="M27.28,94.11A35.58,35.58,0,0,0,33,95.63a44.27,44.27,0,0,0,7,.73c1.36,0,3,0,4.43-.06A35.41,35.41,0,0,0,49,95.65c6.33-1.3,13.42-5.09,20.43-11.86A115.63,115.63,0,0,0,80,72C83.5,67.57,87,62.68,91.1,57.46c7.64-9.79,15.39-20,24.54-28a72.61,72.61,0,0,1,14.59-10.2,51.12,51.12,0,0,1,28.71-5.72,59.86,59.86,0,0,1,9.68,1.57,48.65,48.65,0,0,1,8.09,2.76,51,51,0,0,0-8.21-2.21,61.41,61.41,0,0,0-9.62-1A53.25,53.25,0,0,0,146,15.76a51.93,51.93,0,0,0-14.59,5.63,71.85,71.85,0,0,0-13.72,10.28c-8.65,8-16.07,18.13-23.76,28-4,5.14-7.62,10-11.3,14.5A104,104,0,0,1,71.47,86a52.79,52.79,0,0,1-11.35,7.93A35.34,35.34,0,0,1,49.33,97.4a37.74,37.74,0,0,1-9.42.09,42.64,42.64,0,0,1-7.09-1.32A31.21,31.21,0,0,1,27.28,94.11Z"/><path class="cls-2" d="M.65,63.66a46.17,46.17,0,0,1,.69-10.93,40.89,40.89,0,0,1,4.3-12.24A37.2,37.2,0,0,1,17.3,27.61a45,45,0,0,1,20-7.27,50.75,50.75,0,0,1,12-.18,43.66,43.66,0,0,1,12.39,3.35C69.74,27,77,32.91,83.34,39.67s12,14.52,17.84,22,11.52,15.1,17.56,21.6,12.52,12,19.65,15.5a41.21,41.21,0,0,0,10.92,3.58,47.15,47.15,0,0,0,11,.5,42.42,42.42,0,0,0,18.93-5.4A35,35,0,0,0,191,86.11a41.35,41.35,0,0,0,5-11.62,52.15,52.15,0,0,0,1.66-10.83,47.94,47.94,0,0,1-.66,11,41.16,41.16,0,0,1-4.25,12.45A36.74,36.74,0,0,1,181,100.26a45,45,0,0,1-20.3,7.1,49.5,49.5,0,0,1-12.11,0,44.85,44.85,0,0,1-12.5-3.53c-8.17-3.6-15.45-9.5-21.91-16.22S101.88,73.29,96,65.76C90,58,84.65,50.48,78.7,44S66.37,32,59.32,28.58a39.68,39.68,0,0,0-10.78-3.4,47.44,47.44,0,0,0-10.83-.35,42.37,42.37,0,0,0-18.63,5.56A35.45,35.45,0,0,0,7.44,41.56,40.62,40.62,0,0,0,2.35,53,49.73,49.73,0,0,0,.65,63.66Z"/><path class="cls-2" d="M27.28,33a31.21,31.21,0,0,1,5.54-2.06,42.44,42.44,0,0,1,7.09-1.32,37.74,37.74,0,0,1,9.42.09,35.34,35.34,0,0,1,10.79,3.47,52.68,52.68,0,0,1,11.35,7.93A104.69,104.69,0,0,1,82.61,52.89c3.68,4.47,7.29,9.37,11.3,14.51,7.69,9.86,15.11,19.94,23.76,28a72.27,72.27,0,0,0,13.72,10.28A51.93,51.93,0,0,0,146,111.3a53.21,53.21,0,0,0,12.89,1.11,61.42,61.42,0,0,0,9.63-1,51,51,0,0,0,8.21-2.21,49.51,49.51,0,0,1-8.1,2.76,58.55,58.55,0,0,1-9.67,1.56,52.08,52.08,0,0,1-13.3-.48,53,53,0,0,1-15.41-5.23,73,73,0,0,1-14.59-10.2c-9.15-8.06-16.9-18.23-24.54-28C87,64.38,83.5,59.49,80,55A115.63,115.63,0,0,0,69.44,43.27c-7-6.77-14.1-10.56-20.43-11.86a33.7,33.7,0,0,0-4.59-.64c-1.42-.1-3.07-.11-4.43-.07a44.27,44.27,0,0,0-7,.73A35.58,35.58,0,0,0,27.28,33Z"/><path class="cls-2" d="M21.15,18.13a48.66,48.66,0,0,1,8-2.86,59.87,59.87,0,0,1,9.67-1.7c1.93-.17,3.8-.29,6.12-.28A49.69,49.69,0,0,1,67.68,19,69.37,69.37,0,0,1,82.34,29.26c9.15,8.13,16.76,18.62,24.18,28.24,7.89,10.16,14.76,19.35,21.93,26s14.23,10.65,20.56,12a36.35,36.35,0,0,0,9,.84,44.6,44.6,0,0,0,7.07-.65,37.34,37.34,0,0,0,5.68-1.43,32.93,32.93,0,0,1-5.57,2,42.57,42.57,0,0,1-7.12,1.22,34.93,34.93,0,0,1-20.21-3.81,55.25,55.25,0,0,1-11.43-8c-7.68-6.69-14.87-16-22.71-26C96.19,49.93,88.93,39.58,80.3,31.47A68.94,68.94,0,0,0,66.53,21.14a51.07,51.07,0,0,0-14.7-5.52,50.13,50.13,0,0,0-6.9-.88c-2.23-.12-4.1-.11-6-.05a62.09,62.09,0,0,0-9.62,1.12A51.16,51.16,0,0,0,21.15,18.13Z"/><text class="cls-3" transform="translate(6.19 106.55)">P</text><text class="cls-4" transform="translate(79.83 106.55)">M</text><polygon class="cls-2" points="326.51 71.21 333.93 62.83 344.36 60.71 337.76 68.75 326.51 71.21"/></g></g></svg>